<?xml version="1.0" encoding="utf-8"?><!-- Uploaded to: SVG Repo, www.svgrepo.com, Generator: SVG Repo Mixer Tools -->
<svg width="800px" height="600px" viewBox="0 0 400 400" fill="none" xmlns="http://www.w3.org/2000/svg">
<path d="M247.327 154.684C241.287 129.635 239.633 106.118 259.961 133.946" stroke="#000000" stroke-opacity="0.9" stroke-width="16" stroke-linecap="round" stroke-linejoin="round"/>
<path d="M287.721 129.075C300.929 107.948 301.616 118.967 299.614 143.417" stroke="#000000" stroke-opacity="0.9" stroke-width="16" stroke-linecap="round" stroke-linejoin="round"/>
<path d="M297.714 146.304C304.632 172.137 312.389 210.647 296.604 234.569C321.533 244.234 339.049 249.067 349.151 249.067C364.305 249.067 364.014 242.903 371 249.067" stroke="#000000" stroke-opacity="0.9" stroke-width="16" stroke-linecap="round" stroke-linejoin="round"/>
<path d="M241.084 160.236C230.255 170.161 219.178 181.252 215.545 195.768" stroke="#000000" stroke-opacity="0.9" stroke-width="16" stroke-linecap="round" stroke-linejoin="round"/>
<path d="M215.545 190.835C144.168 178.002 105.797 204.852 91.9119 246.772C26.4829 264.873 12.089 276.372 48.7303 281.268" stroke="#000000" stroke-opacity="0.9" stroke-width="16" stroke-linecap="round" stroke-linejoin="round"/>
<path d="M165.859 210.275C169.397 208.668 177.78 208.668 183.116 210.469C247.613 232.24 73.0129 252.398 163.134 252.398C170.724 252.398 187.233 251.024 189.936 251.024" stroke="#000000" stroke-opacity="0.9" stroke-width="16" stroke-linecap="round" stroke-linejoin="round"/>
<path d="M292.749 169.119C302.64 192.481 265.664 201.32 263.412 173.603" stroke="#000000" stroke-opacity="0.9" stroke-width="16" stroke-linecap="round" stroke-linejoin="round"/>
<path d="M281.214 187.995C275.94 185.649 280.909 185.292 282.169 184.664" stroke="#000000" stroke-opacity="0.9" stroke-width="16" stroke-linecap="round" stroke-linejoin="round"/>
<path d="M245.526 213.534C249.958 216.297 251.405 221.914 252.84 226.795C263.52 263.112 250.534 243.316 297.643 246.457C304.236 246.897 328.648 250.048 326.444 244.171" stroke="#000000" stroke-opacity="0.9" stroke-width="16" stroke-linecap="round" stroke-linejoin="round"/>
</svg>